<?xml version="1.0" standalone="no"?>
<!DOCTYPE svg PUBLIC "-//W3C//DTD SVG 20010904//EN"
 "http://www.w3.org/TR/2001/REC-SVG-20010904/DTD/svg10.dtd">
<svg version="1.0" xmlns="http://www.w3.org/2000/svg"
 width="256.000000pt" height="256.000000pt" viewBox="0 0 256.000000 256.000000"
 preserveAspectRatio="xMidYMid meet">

<g transform="translate(0.000000,256.000000) scale(0.100000,-0.100000)"
fill="#000000" stroke="none">
<path d="M505 2375 c-16 -15 -25 -36 -25 -55 0 -19 9 -40 25 -55 l24 -25 751
0 751 0 24 25 c33 32 33 78 0 110 l-24 25 -751 0 -751 0 -24 -25z"/>
<path d="M345 2055 c-16 -15 -25 -36 -25 -55 0 -19 9 -40 25 -55 l24 -25 911
0 911 0 24 25 c33 32 33 78 0 110 l-24 25 -911 0 -911 0 -24 -25z"/>
<path d="M320 1747 c-49 -16 -133 -102 -148 -153 -17 -59 -17 -1209 0 -1268
16 -55 99 -138 154 -154 31 -9 267 -12 956 -12 1038 0 975 -5 1051 80 24 26
49 66 55 88 17 56 17 1208 0 1264 -6 22 -31 62 -55 88 -76 85 -12 80 -1057 79
-641 -1 -932 -4 -956 -12z m1895 -172 l25 -24 0 -591 0 -591 -25 -24 -24 -25
-911 0 -911 0 -24 25 -25 24 0 591 0 591 25 24 24 25 911 0 911 0 24 -25z"/>
<path d="M905 1335 l-25 -24 0 -351 0 -351 25 -24 c14 -15 35 -25 52 -24 16 0
179 76 368 172 367 186 372 189 349 255 -8 23 -57 51 -349 199 -189 96 -352
172 -368 172 -17 1 -38 -9 -52 -24z m505 -375 c0 -3 -83 -47 -185 -98 l-185
-92 0 190 0 190 185 -92 c102 -51 185 -95 185 -98z"/>
</g>
</svg>
